{
  "accessors": [
    {
      "bufferView": 2,
      "componentType": 5126,
      "count": 6,
      "max": [
        3.076195001602173,
        3.8889338970184326,
        3.5071370601654053
      ],
      "min": [
        3.0617709159851074,
        2.10268497467041,
        -0.20613199472427368
      ],
      "type": "VEC3"
    },
    {
      "bufferView": 1,
      "componentType": 5126,
      "count": 6,
      "max": [
        0.0,
        0.0
      ],
      "min": [
        0.0,
        0.0
      ],
      "type": "VEC2"
    },
    {
      "bufferView": 0,
      "componentType": 5125,
      "count": 6,
      "type": "SCALAR"
    },
    {
      "bufferView": 2,
      "byteOffset": 72,
      "componentType": 5126,
      "count": 65532,
      "max": [
        4.4419379234313965,
        3.4092769622802734,
        5.451406955718994
      ],
      "min": [
        -3.466779947280884,
        -3.969434976577759,
        -3.5833048820495605
      ],
      "type": "VEC3"
    },
    {
      "bufferView": 2,
      "byteOffset": 786456,
      "componentType": 5126,
      "count": 65532,
      "max": [
        0.9999983906745911,
        0.9998652935028076,
        0.9999997019767761
      ],
      "min": [
        -0.9995485544204712,
        -0.9999887347221375,
        -0.9997367262840271
      ],
      "type": "VEC3"
    },
    {
      "bufferView": 3,
      "componentType": 5126,
      "count": 65532,
      "max": [
        0.9991064667701721,
        0.9960197806358337,
        0.9992724657058716,
        1.0
      ],
      "min": [
        -0.9992138743400574,
        -0.9997714757919312,
        -0.9998822808265686,
        1.0
      ],
      "type": "VEC4"
    },
    {
      "bufferView": 1,
      "byteOffset": 48,
      "componentType": 5126,
      "count": 65532,
      "max": [
        0.9999889731407166,
        0.999904990196228
      ],
      "min": [
        0.004426999948918819,
        0.0
      ],
      "type": "VEC2"
    },
    {
      "bufferView": 0,
      "byteOffset": 24,
      "componentType": 5125,
      "count": 321102,
      "type": "SCALAR"
    },
    {
      "bufferView": 2,
      "byteOffset": 1572840,
      "componentType": 5126,
      "count": 65532,
      "max": [
        4.233203887939453,
        4.914577007293701,
        4.123985767364502
      ],
      "min": [
        -4.352589130401611,
        -3.965359926223755,
        -4.106812000274658
      ],
      "type": "VEC3"
    },
    {
      "bufferView": 2,
      "byteOffset": 2359224,
      "componentType": 5126,
      "count": 65532,
      "max": [
        1.0,
        0.9999768137931824,
        1.0
      ],
      "min": [
        -0.9999654293060303,
        -0.999965250492096,
        -1.0
      ],
      "type": "VEC3"
    },
    {
      "bufferView": 3,
      "byteOffset": 1048512,
      "componentType": 5126,
      "count": 65532,
      "max": [
        1.0,
        1.0,
        0.9992557764053345,
        1.0
      ],
      "min": [
        -1.0,
        -1.0,
        -0.9998692274093628,
        -1.0
      ],
      "type": "VEC4"
    },
    {
      "bufferView": 1,
      "byteOffset": 524304,
      "componentType": 5126,
      "count": 65532,
      "max": [
        1.0,
        0.9999600052833557
      ],
      "min": [
        0.0,
        0.0
      ],
      "type": "VEC2"
    },
    {
      "bufferView": 0,
      "byteOffset": 1284432,
      "componentType": 5125,
      "count": 311334,
      "type": "SCALAR"
    },
    {
      "bufferView": 2,
      "byteOffset": 3145608,
      "componentType": 5126,
      "count": 65532,
      "max": [
        4.428592205047607,
        3.6534769535064697,
        5.449860095977783
      ],
      "min": [
        -4.660350799560547,
        -3.9575369358062744,
        -4.154997825622559
      ],
      "type": "VEC3"
    },
    {
      "bufferView": 2,
      "byteOffset": 3931992,
      "componentType": 5126,
      "count": 65532,
      "max": [
        0.9999186992645264,
        0.9999853372573853,
        0.9999697208404541
      ],
      "min": [
        -0.999976396560669,
        -0.999965250492096,
        -0.9999936819076538
      ],
      "type": "VEC3"
    },
    {
      "bufferView": 3,
      "byteOffset": 2097024,
      "componentType": 5126,
      "count": 65532,
      "max": [
        0.999981701374054,
        1.0,
        0.9999021291732788,
        1.0
      ],
      "min": [
        -0.9998844265937805,
        -1.0,
        -1.0,
        -1.0
      ],
      "type": "VEC4"
    },
    {
      "bufferView": 1,
      "byteOffset": 1048560,
      "componentType": 5126,
      "count": 65532,
      "max": [
        0.999983012676239,
        0.9999939799308777
      ],
      "min": [
        0.0,
        0.0
      ],
      "type": "VEC2"
    },
    {
      "bufferView": 0,
      "byteOffset": 2529768,
      "componentType": 5125,
      "count": 260187,
      "type": "SCALAR"
    },
    {
      "bufferView": 2,
      "byteOffset": 4718376,
      "componentType": 5126,
      "count": 65532,
      "max": [
        4.303174018859863,
        4.913252830505371,
        4.898111820220947
      ],
      "min": [
        -4.660042762756348,
        -3.9220008850097656,
        -4.41520881652832
      ],
      "type": "VEC3"
    },
    {
      "bufferView": 2,
      "byteOffset": 5504760,
      "componentType": 5126,
      "count": 65532,
      "max": [
        0.9999960660934448,
        1.0,
        1.0
      ],
      "min": [
        -0.9999914765357971,
        -1.0,
        -0.9999911785125732
      ],
      "type": "VEC3"
    },
    {
      "bufferView": 3,
      "byteOffset": 3145536,
      "componentType": 5126,
      "count": 65532,
      "max": [
        1.0,
        1.0,
        1.0,
        1.0
      ],
      "min": [
        -1.0,
        -1.0,
        -1.0,
        -1.0
      ],
      "type": "VEC4"
    },
    {
      "bufferView": 1,
      "byteOffset": 1572816,
      "componentType": 5126,
      "count": 65532,
      "max": [
        1.0,
        0.9999979734420776
      ],
      "min": [
        0.0,
        0.0
      ],
      "type": "VEC2"
    },
    {
      "bufferView": 0,
      "byteOffset": 3570516,
      "componentType": 5125,
      "count": 175920,
      "type": "SCALAR"
    },
    {
      "bufferView": 2,
      "byteOffset": 6291144,
      "componentType": 5126,
      "count": 2485,
      "max": [
        4.421760082244873,
        1.7583119869232178,
        4.303499221801758
      ],
      "min": [
        2.486448049545288,
        -2.388624906539917,
        1.2447960376739502
      ],
      "type": "VEC3"
    },
    {
      "bufferView": 2,
      "byteOffset": 6320964,
      "componentType": 5126,
      "count": 2485,
      "max": [
        0.9999189972877502,
        0.9987102150917053,
        0.997503936290741
      ],
      "min": [
        -0.9998872876167297,
        -0.9797417521476746,
        -0.9982173442840576
      ],
      "type": "VEC3"
    },
    {
      "bufferView": 3,
      "byteOffset": 4194048,
      "componentType": 5126,
      "count": 2485,
      "max": [
        0.998735785484314,
        0.9981716275215149,
        0.9992340207099915,
        1.0
      ],
      "min": [
        -0.9953653812408447,
        -0.9927912950515747,
        -0.9997419714927673,
        -1.0
      ],
      "type": "VEC4"
    },
    {
      "bufferView": 1,
      "byteOffset": 2097072,
      "componentType": 5126,
      "count": 2485,
      "max": [
        0.9998999834060669,
        0.9999179840087891
      ],
      "min": [
        0.0,
        0.003988000098615885
      ],
      "type": "VEC2"
    },
    {
      "bufferView": 0,
      "byteOffset": 4274196,
      "componentType": 5125,
      "count": 6165,
      "type": "SCALAR"
    }
  ],
  "asset": {
    "extras": {
      "author": "Andykk (https://sketchfab.com/andykwok91011)",
      "license": "CC-BY-4.0 (http://creativecommons.org/licenses/by/4.0/)",
      "source": "https://sketchfab.com/3d-models/211209-cuisine-d8400af940bc4bfe8d172d8fe0b3cca3",
      "title": "211209- Cuisine"
    },
    "generator": "Sketchfab-13.83.0",
    "version": "2.0"
  },
  "bufferViews": [
    {
      "buffer": 0,
      "byteLength": 4298856,
      "name": "floatBufferViews",
      "target": 34963
    },
    {
      "buffer": 0,
      "byteLength": 2116952,
      "byteOffset": 4298856,
      "byteStride": 8,
      "name": "floatBufferViews",
      "target": 34962
    },
    {
      "buffer": 0,
      "byteLength": 6350784,
      "byteOffset": 6415808,
      "byteStride": 12,
      "name": "floatBufferViews",
      "target": 34962
    },
    {
      "buffer": 0,
      "byteLength": 4233808,
      "byteOffset": 12766592,
      "byteStride": 16,
      "name": "floatBufferViews",
      "target": 34962
    }
  ],
  "buffers": [
    {
      "byteLength": 17000400,
      "uri": "scene.bin"
    }
  ],
  "images": [
    {
      "uri": "textures/material_baseColor.png"
    },
    {
      "uri": "textures/material_metallicRoughness.png"
    },
    {
      "uri": "textures/material_normal.png"
    }
  ],
  "materials": [
    {
      "doubleSided": true,
      "name": "material",
      "normalTexture": {
        "index": 2
      },
      "occlusionTexture": {
        "index": 1
      },
      "pbrMetallicRoughness": {
        "baseColorTexture": {
          "index": 0
        },
        "metallicFactor": 0.0,
        "metallicRoughnessTexture": {
          "index": 1
        }
      }
    }
  ],
  "meshes": [
    {
      "name": "Object_0",
      "primitives": [
        {
          "attributes": {
            "POSITION": 0,
            "TEXCOORD_0": 1
          },
          "indices": 2,
          "material": 0,
          "mode": 1
        }
      ]
    },
    {
      "name": "Object_1",
      "primitives": [
        {
          "attributes": {
            "NORMAL": 4,
            "POSITION": 3,
            "TANGENT": 5,
            "TEXCOORD_0": 6
          },
          "indices": 7,
          "material": 0,
          "mode": 4
        }
      ]
    },
    {
      "name": "Object_2",
      "primitives": [
        {
          "attributes": {
            "NORMAL": 9,
            "POSITION": 8,
            "TANGENT": 10,
            "TEXCOORD_0": 11
          },
          "indices": 12,
          "material": 0,
          "mode": 4
        }
      ]
    },
    {
      "name": "Object_3",
      "primitives": [
        {
          "attributes": {
            "NORMAL": 14,
            "POSITION": 13,
            "TANGENT": 15,
            "TEXCOORD_0": 16
          },
          "indices": 17,
          "material": 0,
          "mode": 4
        }
      ]
    },
    {
      "name": "Object_4",
      "primitives": [
        {
          "attributes": {
            "NORMAL": 19,
            "POSITION": 18,
            "TANGENT": 20,
            "TEXCOORD_0": 21
          },
          "indices": 22,
          "material": 0,
          "mode": 4
        }
      ]
    },
    {
      "name": "Object_5",
      "primitives": [
        {
          "attributes": {
            "NORMAL": 24,
            "POSITION": 23,
            "TANGENT": 25,
            "TEXCOORD_0": 26
          },
          "indices": 27,
          "material": 0,
          "mode": 4
        }
      ]
    }
  ],
  "nodes": [
    {
      "children": [
        1
      ],
      "matrix": [
        1.0,
        0.0,
        0.0,
        0.0,
        0.0,
        2.220446049250313e-16,
        -1.0,
        0.0,
        0.0,
        1.0,
        2.220446049250313e-16,
        0.0,
        0.0,
        0.0,
        0.0,
        1.0
      ],
      "name": "Sketchfab_model"
    },
    {
      "children": [
        2,
        3,
        4,
        5,
        6,
        7
      ],
      "name": "untitled.obj.cleaner.materialmerger.gles"
    },
    {
      "mesh": 0,
      "name": "Object_2"
    },
    {
      "mesh": 1,
      "name": "Object_3"
    },
    {
      "mesh": 2,
      "name": "Object_4"
    },
    {
      "mesh": 3,
      "name": "Object_5"
    },
    {
      "mesh": 4,
      "name": "Object_6"
    },
    {
      "mesh": 5,
      "name": "Object_7"
    }
  ],
  "samplers": [
    {
      "magFilter": 9729,
      "minFilter": 9987,
      "wrapS": 10497,
      "wrapT": 10497
    }
  ],
  "scene": 0,
  "scenes": [
    {
      "name": "Sketchfab_Scene",
      "nodes": [
        0
      ]
    }
  ],
  "textures": [
    {
      "sampler": 0,
      "source": 0
    },
    {
      "sampler": 0,
      "source": 1
    },
    {
      "sampler": 0,
      "source": 2
    }
  ]
}
